<svg xmlns="http://www.w3.org/2000/svg" width="446" height="81" fill="none" viewBox="0 0 446 81"><path fill="#33c88c" d="M0 40.154C0 62.33 17.979 80.31 40.155 80.31a8.031 8.031 0 1 0 0-16.064 24.09 24.09 0 0 1-24.045-25.49 24.094 24.094 0 0 1 46.52-7.3.693.693 0 0 1-.657.936H40.155a8.031 8.031 0 0 0 0 16.063H72.28a8.03 8.03 0 0 0 8.032-8.032v-.267C80.31 17.979 62.333 0 40.155 0S0 17.977 0 40.154"/><mask id="a" width="335" height="34" x="110.908" y="23.357" fill="#000" maskUnits="userSpaceOnUse"><path fill="#fff" d="M110.908 23.357h335v34h-335z"/><path d="M113.953 55.56a1.97 1.97 0 0 1-1.455-.592q-.59-.592-.59-1.46V26.802q0-.907.59-1.46a1.97 1.97 0 0 1 1.455-.591h17.774q.905 0 1.455.552.55.513.55 1.38 0 .83-.55 1.342t-1.455.513h-15.729v9.586h11.285q.904 0 1.455.552.55.513.551 1.341 0 .829-.551 1.38-.55.514-1.455.514h-11.285v9.862h15.729q.905 0 1.455.512.55.513.55 1.342 0 .868-.55 1.42-.55.513-1.455.513zm29.853 0a1.97 1.97 0 0 1-1.454-.592q-.55-.592-.551-1.46V26.802q0-.867.59-1.46a1.93 1.93 0 0 1 1.415-.591q.865 0 1.455.592.59.59.59 1.46v24.654h14.235q.865 0 1.455.592.59.59.59 1.46 0 .868-.59 1.459a1.97 1.97 0 0 1-1.455.592zm27.628 0a1.98 1.98 0 0 1-1.455-.592q-.59-.592-.589-1.46V26.802q0-.907.589-1.46a1.98 1.98 0 0 1 1.455-.591h17.774q.904 0 1.455.552.55.513.551 1.38 0 .83-.551 1.342-.55.513-1.455.513h-15.729v9.586h11.286q.905 0 1.455.552.55.513.55 1.341 0 .829-.55 1.38-.55.514-1.455.514h-11.286v9.862h15.729q.904 0 1.455.512.55.513.551 1.342 0 .868-.551 1.42-.55.513-1.455.513zm41.611.394q-3.185 0-5.977-1.183a15.5 15.5 0 0 1-4.837-3.353q-2.045-2.17-3.224-5.05-1.14-2.88-1.14-6.232 0-3.314 1.14-6.154 1.18-2.88 3.224-5.01a15.2 15.2 0 0 1 4.837-3.393q2.753-1.223 5.977-1.223 3.028 0 5.191.79 2.202.788 4.404 2.603.315.237.472.513.196.237.236.513.078.236.078.591 0 .75-.55 1.263a2.13 2.13 0 0 1-1.259.552q-.747.039-1.455-.513-1.454-1.262-3.027-1.933-1.534-.67-4.09-.67-2.32 0-4.365.946a11.8 11.8 0 0 0-3.617 2.604 12.2 12.2 0 0 0-2.399 3.866q-.865 2.17-.865 4.655 0 2.524.865 4.733a12.3 12.3 0 0 0 2.399 3.827 11.8 11.8 0 0 0 3.617 2.603q2.045.908 4.365.908 2.005 0 3.775-.671a15 15 0 0 0 3.46-1.933q.708-.512 1.377-.434.708.039 1.179.552.472.474.472 1.342 0 .394-.157.789-.157.354-.472.67a15.7 15.7 0 0 1-4.561 2.564q-2.398.868-5.073.868m28.247-.394a1.97 1.97 0 0 1-1.455-.592q-.59-.592-.59-1.46V24.751h4.09v28.757q0 .869-.59 1.46a1.97 1.97 0 0 1-1.455.592m-10.538-27.022q-.826 0-1.377-.513-.51-.552-.511-1.38 0-.83.511-1.342.55-.552 1.377-.552h21.037q.826 0 1.337.552.55.514.551 1.342 0 .828-.551 1.38-.511.513-1.337.513zM262.61 55.56a1.97 1.97 0 0 1-1.455-.592q-.59-.592-.59-1.46V26.802q0-.907.59-1.46a1.97 1.97 0 0 1 1.455-.591h7.078q2.949 0 5.23 1.262 2.28 1.223 3.539 3.393 1.298 2.17 1.298 5.05 0 2.68-1.298 4.772-1.259 2.091-3.539 3.274-2.281 1.185-5.23 1.184h-5.033v9.822q0 .869-.59 1.46-.55.591-1.455.592m16.319 0q-.55 0-1.023-.237-.432-.237-.747-.75l-7.078-11.44 3.972-1.143 6.449 10.414q.708 1.144.196 2.17-.51.986-1.769.986m-14.274-15.661h5.033q1.81 0 3.185-.67 1.377-.71 2.163-1.934.786-1.262.786-2.84 0-1.736-.786-3.077a5.5 5.5 0 0 0-2.163-2.09q-1.376-.75-3.185-.75h-5.033zm37.31 16.055q-3.46 0-6.331-1.144-2.87-1.183-4.954-3.274-2.045-2.13-3.185-5.01-1.141-2.919-1.141-6.39 0-3.472 1.141-6.352 1.14-2.88 3.185-4.97 2.084-2.13 4.954-3.274 2.87-1.183 6.331-1.183 3.46 0 6.292 1.183 2.87 1.144 4.954 3.274 2.085 2.09 3.225 4.97t1.14 6.352-1.14 6.39q-1.14 2.88-3.225 5.01-2.083 2.09-4.954 3.274-2.832 1.144-6.292 1.144m0-3.708q2.556 0 4.68-.907a11.7 11.7 0 0 0 3.735-2.564 11.3 11.3 0 0 0 2.399-3.866q.865-2.21.865-4.773 0-2.564-.865-4.774-.826-2.209-2.399-3.826a10.9 10.9 0 0 0-3.735-2.564q-2.124-.907-4.68-.907t-4.718.907a11 11 0 0 0-3.697 2.564q-1.534 1.617-2.398 3.826t-.865 4.774.865 4.773a12.1 12.1 0 0 0 2.398 3.866 11.8 11.8 0 0 0 3.697 2.564q2.162.907 4.718.907m26.421 3.314a1.97 1.97 0 0 1-1.455-.592q-.59-.592-.59-1.46V26.802q0-.907.59-1.46a1.97 1.97 0 0 1 1.455-.591q1.179 0 1.809 1.104l12.308 24.734h-1.259l11.994-24.733q.629-1.105 1.808-1.105.865 0 1.455.592.59.551.59 1.46v26.705q0 .869-.629 1.46a1.93 1.93 0 0 1-1.416.592 1.97 1.97 0 0 1-1.454-.592q-.59-.592-.59-1.46V32.483l.786-.197-10.302 21.065q-.669 1.025-1.77 1.025-1.298 0-1.887-1.223L329.644 32.68l.787-.197v21.025q0 .869-.59 1.46a1.97 1.97 0 0 1-1.455.592m37.727 0q-1.101 0-1.691-.947t-.118-2.012l11.049-26.47q.59-1.38 1.927-1.38 1.416 0 1.927 1.38l11.089 26.549q.432 1.104-.157 2.012-.55.868-1.691.868-.59 0-1.141-.316a2.06 2.06 0 0 1-.747-.947l-9.752-24.3h1.101L368 54.298q-.275.632-.826.947a2 2 0 0 1-1.061.316m2.084-6.785 1.573-3.393h15.414l1.573 3.393zm31.187 6.784a1.98 1.98 0 0 1-1.455-.592q-.59-.592-.589-1.46V26.802q0-.907.589-1.46a1.98 1.98 0 0 1 1.455-.591h7.865q2.949 0 5.23 1.302a9.06 9.06 0 0 1 3.539 3.629q1.297 2.288 1.297 5.286 0 2.88-1.297 5.128a8.93 8.93 0 0 1-3.539 3.511q-2.281 1.262-5.23 1.262h-5.82v8.64q0 .868-.59 1.459-.55.591-1.455.592m2.045-14.478h5.82q1.809 0 3.185-.789a5.73 5.73 0 0 0 2.163-2.17q.786-1.38.786-3.155 0-1.893-.786-3.314a5.87 5.87 0 0 0-2.163-2.288q-1.376-.828-3.185-.828h-5.82zm32.522 14.872q-2.517 0-4.798-.789-2.28-.789-3.971-2.209t-2.478-3.274q-.393-.828 0-1.538.434-.71 1.416-.908.708-.157 1.376.237.708.355 1.062 1.104.472.987 1.533 1.815 1.101.829 2.635 1.341 1.533.513 3.225.513 1.887 0 3.46-.592 1.612-.592 2.595-1.696.983-1.144.983-2.8 0-2.092-1.651-3.748-1.613-1.657-5.348-2.051-4.876-.474-7.668-2.88t-2.792-5.957q0-2.603 1.455-4.418t3.932-2.761q2.517-.947 5.584-.947 2.399 0 4.168.67 1.81.672 3.146 1.855a12.1 12.1 0 0 1 2.32 2.8q.55.868.433 1.657-.08.75-.748 1.184-.747.473-1.612.197t-1.297-1.026a7 7 0 0 0-1.534-1.933 6.5 6.5 0 0 0-2.123-1.223q-1.22-.473-2.871-.473-2.91-.04-4.876 1.105-1.966 1.104-1.966 3.432a4.8 4.8 0 0 0 .59 2.288q.628 1.065 2.241 1.853 1.651.79 4.719 1.105 4.679.474 7.274 2.88Q445 43.134 445 47.039q0 2.248-.944 3.905a8.4 8.4 0 0 1-2.477 2.801q-1.533 1.104-3.539 1.657a15 15 0 0 1-4.089.552"/></mask><path fill="#33c88c" d="M113.953 55.56a1.97 1.97 0 0 1-1.455-.592q-.59-.592-.59-1.46V26.802q0-.907.59-1.46a1.97 1.97 0 0 1 1.455-.591h17.774q.905 0 1.455.552.55.513.55 1.38 0 .83-.55 1.342t-1.455.513h-15.729v9.586h11.285q.904 0 1.455.552.55.513.551 1.341 0 .829-.551 1.38-.55.514-1.455.514h-11.285v9.862h15.729q.905 0 1.455.512.55.513.55 1.342 0 .868-.55 1.42-.55.513-1.455.513zm29.853 0a1.97 1.97 0 0 1-1.454-.592q-.55-.592-.551-1.46V26.802q0-.867.59-1.46a1.93 1.93 0 0 1 1.415-.591q.865 0 1.455.592.59.59.59 1.46v24.654h14.235q.865 0 1.455.592.59.59.59 1.46 0 .868-.59 1.459a1.97 1.97 0 0 1-1.455.592zm27.628 0a1.98 1.98 0 0 1-1.455-.592q-.59-.592-.589-1.46V26.802q0-.907.589-1.46a1.98 1.98 0 0 1 1.455-.591h17.774q.904 0 1.455.552.55.513.551 1.38 0 .83-.551 1.342-.55.513-1.455.513h-15.729v9.586h11.286q.905 0 1.455.552.55.513.55 1.341 0 .829-.55 1.38-.55.514-1.455.514h-11.286v9.862h15.729q.904 0 1.455.512.55.513.551 1.342 0 .868-.551 1.42-.55.513-1.455.513zm41.611.394q-3.185 0-5.977-1.183a15.5 15.5 0 0 1-4.837-3.353q-2.045-2.17-3.224-5.05-1.14-2.88-1.14-6.232 0-3.314 1.14-6.154 1.18-2.88 3.224-5.01a15.2 15.2 0 0 1 4.837-3.393q2.753-1.223 5.977-1.223 3.028 0 5.191.79 2.202.788 4.404 2.603.315.237.472.513.196.237.236.513.078.236.078.591 0 .75-.55 1.263a2.13 2.13 0 0 1-1.259.552q-.747.039-1.455-.513-1.454-1.262-3.027-1.933-1.534-.67-4.09-.67-2.32 0-4.365.946a11.8 11.8 0 0 0-3.617 2.604 12.2 12.2 0 0 0-2.399 3.866q-.865 2.17-.865 4.655 0 2.524.865 4.733a12.3 12.3 0 0 0 2.399 3.827 11.8 11.8 0 0 0 3.617 2.603q2.045.908 4.365.908 2.005 0 3.775-.671a15 15 0 0 0 3.46-1.933q.708-.512 1.377-.434.708.039 1.179.552.472.474.472 1.342 0 .394-.157.789-.157.354-.472.67a15.7 15.7 0 0 1-4.561 2.564q-2.398.868-5.073.868m28.247-.394a1.97 1.97 0 0 1-1.455-.592q-.59-.592-.59-1.46V24.751h4.09v28.757q0 .869-.59 1.46a1.97 1.97 0 0 1-1.455.592m-10.538-27.022q-.826 0-1.377-.513-.51-.552-.511-1.38 0-.83.511-1.342.55-.552 1.377-.552h21.037q.826 0 1.337.552.55.514.551 1.342 0 .828-.551 1.38-.511.513-1.337.513zM262.61 55.56a1.97 1.97 0 0 1-1.455-.592q-.59-.592-.59-1.46V26.802q0-.907.59-1.46a1.97 1.97 0 0 1 1.455-.591h7.078q2.949 0 5.23 1.262 2.28 1.223 3.539 3.393 1.298 2.17 1.298 5.05 0 2.68-1.298 4.772-1.259 2.091-3.539 3.274-2.281 1.185-5.23 1.184h-5.033v9.822q0 .869-.59 1.46-.55.591-1.455.592m16.319 0q-.55 0-1.023-.237-.432-.237-.747-.75l-7.078-11.44 3.972-1.143 6.449 10.414q.708 1.144.196 2.17-.51.986-1.769.986m-14.274-15.661h5.033q1.81 0 3.185-.67 1.377-.71 2.163-1.934.786-1.262.786-2.84 0-1.736-.786-3.077a5.5 5.5 0 0 0-2.163-2.09q-1.376-.75-3.185-.75h-5.033zm37.31 16.055q-3.46 0-6.331-1.144-2.87-1.183-4.954-3.274-2.045-2.13-3.185-5.01-1.141-2.919-1.141-6.39 0-3.472 1.141-6.352 1.14-2.88 3.185-4.97 2.084-2.13 4.954-3.274 2.87-1.183 6.331-1.183 3.46 0 6.292 1.183 2.87 1.144 4.954 3.274 2.085 2.09 3.225 4.97t1.14 6.352-1.14 6.39q-1.14 2.88-3.225 5.01-2.083 2.09-4.954 3.274-2.832 1.144-6.292 1.144m0-3.708q2.556 0 4.68-.907a11.7 11.7 0 0 0 3.735-2.564 11.3 11.3 0 0 0 2.399-3.866q.865-2.21.865-4.773 0-2.564-.865-4.774-.826-2.209-2.399-3.826a10.9 10.9 0 0 0-3.735-2.564q-2.124-.907-4.68-.907t-4.718.907a11 11 0 0 0-3.697 2.564q-1.534 1.617-2.398 3.826t-.865 4.774.865 4.773a12.1 12.1 0 0 0 2.398 3.866 11.8 11.8 0 0 0 3.697 2.564q2.162.907 4.718.907m26.421 3.314a1.97 1.97 0 0 1-1.455-.592q-.59-.592-.59-1.46V26.802q0-.907.59-1.46a1.97 1.97 0 0 1 1.455-.591q1.179 0 1.809 1.104l12.308 24.734h-1.259l11.994-24.733q.629-1.105 1.808-1.105.865 0 1.455.592.59.551.59 1.46v26.705q0 .869-.629 1.46a1.93 1.93 0 0 1-1.416.592 1.97 1.97 0 0 1-1.454-.592q-.59-.592-.59-1.46V32.483l.786-.197-10.302 21.065q-.669 1.025-1.77 1.025-1.298 0-1.887-1.223L329.644 32.68l.787-.197v21.025q0 .869-.59 1.46a1.97 1.97 0 0 1-1.455.592m37.727 0q-1.101 0-1.691-.947t-.118-2.012l11.049-26.47q.59-1.38 1.927-1.38 1.416 0 1.927 1.38l11.089 26.549q.432 1.104-.157 2.012-.55.868-1.691.868-.59 0-1.141-.316a2.06 2.06 0 0 1-.747-.947l-9.752-24.3h1.101L368 54.298q-.275.632-.826.947a2 2 0 0 1-1.061.316m2.084-6.785 1.573-3.393h15.414l1.573 3.393zm31.187 6.784a1.98 1.98 0 0 1-1.455-.592q-.59-.592-.589-1.46V26.802q0-.907.589-1.46a1.98 1.98 0 0 1 1.455-.591h7.865q2.949 0 5.23 1.302a9.06 9.06 0 0 1 3.539 3.629q1.297 2.288 1.297 5.286 0 2.88-1.297 5.128a8.93 8.93 0 0 1-3.539 3.511q-2.281 1.262-5.23 1.262h-5.82v8.64q0 .868-.59 1.459-.55.591-1.455.592m2.045-14.478h5.82q1.809 0 3.185-.789a5.73 5.73 0 0 0 2.163-2.17q.786-1.38.786-3.155 0-1.893-.786-3.314a5.87 5.87 0 0 0-2.163-2.288q-1.376-.828-3.185-.828h-5.82zm32.522 14.872q-2.517 0-4.798-.789-2.28-.789-3.971-2.209t-2.478-3.274q-.393-.828 0-1.538.434-.71 1.416-.908.708-.157 1.376.237.708.355 1.062 1.104.472.987 1.533 1.815 1.101.829 2.635 1.341 1.533.513 3.225.513 1.887 0 3.46-.592 1.612-.592 2.595-1.696.983-1.144.983-2.8 0-2.092-1.651-3.748-1.613-1.657-5.348-2.051-4.876-.474-7.668-2.88t-2.792-5.957q0-2.603 1.455-4.418t3.932-2.761q2.517-.947 5.584-.947 2.399 0 4.168.67 1.81.672 3.146 1.855a12.1 12.1 0 0 1 2.32 2.8q.55.868.433 1.657-.08.75-.748 1.184-.747.473-1.612.197t-1.297-1.026a7 7 0 0 0-1.534-1.933 6.5 6.5 0 0 0-2.123-1.223q-1.22-.473-2.871-.473-2.91-.04-4.876 1.105-1.966 1.104-1.966 3.432a4.8 4.8 0 0 0 .59 2.288q.628 1.065 2.241 1.853 1.651.79 4.719 1.105 4.679.474 7.274 2.88Q445 43.134 445 47.039q0 2.248-.944 3.905a8.4 8.4 0 0 1-2.477 2.801q-1.533 1.104-3.539 1.657a15 15 0 0 1-4.089.552"/><path stroke="#33c88c" stroke-width="1.317" d="M113.953 55.56a1.97 1.97 0 0 1-1.455-.592q-.59-.592-.59-1.46V26.802q0-.907.59-1.46a1.97 1.97 0 0 1 1.455-.591h17.774q.905 0 1.455.552.55.513.55 1.38 0 .83-.55 1.342t-1.455.513h-15.729v9.586h11.285q.904 0 1.455.552.55.513.551 1.341 0 .829-.551 1.38-.55.514-1.455.514h-11.285v9.862h15.729q.905 0 1.455.512.55.513.55 1.342 0 .868-.55 1.42-.55.513-1.455.513z" mask="url(#a)"/><path stroke="#33c88c" stroke-width="1.317" d="M143.806 55.56a1.97 1.97 0 0 1-1.454-.592q-.55-.592-.551-1.46V26.802q0-.867.59-1.46a1.93 1.93 0 0 1 1.415-.591q.865 0 1.455.592.59.59.59 1.46v24.654h14.235q.865 0 1.455.592.59.59.59 1.46 0 .868-.59 1.459a1.97 1.97 0 0 1-1.455.592z" mask="url(#a)"/><path stroke="#33c88c" stroke-width="1.317" d="M171.434 55.56a1.98 1.98 0 0 1-1.455-.592q-.59-.592-.589-1.46V26.802q0-.907.589-1.46a1.98 1.98 0 0 1 1.455-.591h17.774q.904 0 1.455.552.55.513.551 1.38 0 .83-.551 1.342-.55.513-1.455.513h-15.729v9.586h11.286q.905 0 1.455.552.55.513.55 1.341 0 .829-.55 1.38-.55.514-1.455.514h-11.286v9.862h15.729q.904 0 1.455.512.55.513.551 1.342 0 .868-.551 1.42-.55.513-1.455.513z" mask="url(#a)"/><path stroke="#33c88c" stroke-width="1.317" d="M213.045 55.954q-3.185 0-5.977-1.183a15.5 15.5 0 0 1-4.837-3.353q-2.045-2.17-3.224-5.05-1.14-2.88-1.14-6.232 0-3.314 1.14-6.154 1.18-2.88 3.224-5.01a15.2 15.2 0 0 1 4.837-3.393q2.753-1.223 5.977-1.223 3.028 0 5.191.79 2.202.788 4.404 2.603.315.237.472.513.196.237.236.513.078.236.078.591 0 .75-.55 1.263a2.13 2.13 0 0 1-1.259.552q-.747.039-1.455-.513-1.454-1.262-3.027-1.933-1.534-.67-4.09-.67-2.32 0-4.365.946a11.8 11.8 0 0 0-3.617 2.604 12.2 12.2 0 0 0-2.399 3.866q-.865 2.17-.865 4.655 0 2.524.865 4.733a12.3 12.3 0 0 0 2.399 3.827 11.8 11.8 0 0 0 3.617 2.603q2.045.908 4.365.908 2.005 0 3.775-.671a15 15 0 0 0 3.46-1.933q.708-.512 1.377-.434.708.039 1.179.552.472.474.472 1.342 0 .394-.157.789-.157.354-.472.67a15.7 15.7 0 0 1-4.561 2.564q-2.398.868-5.073.868Z" mask="url(#a)"/><path stroke="#33c88c" stroke-width="1.317" d="M241.292 55.56a1.97 1.97 0 0 1-1.455-.592q-.59-.592-.59-1.46V24.751h4.09v28.757q0 .869-.59 1.46a1.97 1.97 0 0 1-1.455.592Zm-10.538-27.022q-.826 0-1.377-.513-.51-.552-.511-1.38 0-.83.511-1.342.55-.552 1.377-.552h21.037q.826 0 1.337.552.55.514.551 1.342 0 .828-.551 1.38-.511.513-1.337.513z" mask="url(#a)"/><path stroke="#33c88c" stroke-width="1.317" d="M262.61 55.56a1.97 1.97 0 0 1-1.455-.592q-.59-.592-.59-1.46V26.802q0-.907.59-1.46a1.97 1.97 0 0 1 1.455-.591h7.078q2.949 0 5.23 1.262 2.28 1.223 3.539 3.393 1.298 2.17 1.298 5.05 0 2.68-1.298 4.772-1.259 2.091-3.539 3.274-2.281 1.185-5.23 1.184h-5.033v9.822q0 .869-.59 1.46-.55.591-1.455.592Zm16.319 0q-.55 0-1.023-.237-.432-.237-.747-.75l-7.078-11.44 3.972-1.143 6.449 10.414q.708 1.144.196 2.17-.51.986-1.769.986Zm-14.274-15.661h5.033q1.81 0 3.185-.67 1.377-.71 2.163-1.934.786-1.262.786-2.84 0-1.736-.786-3.077a5.5 5.5 0 0 0-2.163-2.09q-1.376-.75-3.185-.75h-5.033z" mask="url(#a)"/><path stroke="#33c88c" stroke-width="1.317" d="M301.965 55.954q-3.46 0-6.331-1.144-2.87-1.183-4.954-3.274-2.045-2.13-3.185-5.01-1.141-2.919-1.141-6.39 0-3.472 1.141-6.352 1.14-2.88 3.185-4.97 2.084-2.13 4.954-3.274 2.87-1.183 6.331-1.183 3.46 0 6.292 1.183 2.87 1.144 4.954 3.274 2.085 2.09 3.225 4.97t1.14 6.352-1.14 6.39q-1.14 2.88-3.225 5.01-2.083 2.09-4.954 3.274-2.832 1.144-6.292 1.144Zm0-3.708q2.556 0 4.68-.907a11.7 11.7 0 0 0 3.735-2.564 11.3 11.3 0 0 0 2.399-3.866q.865-2.21.865-4.773 0-2.564-.865-4.774-.826-2.209-2.399-3.826a10.9 10.9 0 0 0-3.735-2.564q-2.124-.907-4.68-.907t-4.718.907a11 11 0 0 0-3.697 2.564q-1.534 1.617-2.398 3.826t-.865 4.774.865 4.773a12.1 12.1 0 0 0 2.398 3.866 11.8 11.8 0 0 0 3.697 2.564q2.162.907 4.718.907Z" mask="url(#a)"/><path stroke="#33c88c" stroke-width="1.317" d="M328.386 55.56a1.97 1.97 0 0 1-1.455-.592q-.59-.592-.59-1.46V26.802q0-.907.59-1.46a1.97 1.97 0 0 1 1.455-.591q1.179 0 1.809 1.104l12.308 24.734h-1.259l11.994-24.733q.629-1.105 1.808-1.105.865 0 1.455.592.59.551.59 1.46v26.705q0 .869-.629 1.46a1.93 1.93 0 0 1-1.416.592 1.97 1.97 0 0 1-1.454-.592q-.59-.592-.59-1.46V32.483l.786-.197-10.302 21.065q-.669 1.025-1.77 1.025-1.298 0-1.887-1.223L329.644 32.68l.787-.197v21.025q0 .869-.59 1.46a1.97 1.97 0 0 1-1.455.592Z" mask="url(#a)"/><path stroke="#33c88c" stroke-width="1.317" d="M366.113 55.56q-1.101 0-1.691-.947t-.118-2.012l11.049-26.47q.59-1.38 1.927-1.38 1.416 0 1.927 1.38l11.089 26.549q.432 1.104-.157 2.012-.55.868-1.691.868-.59 0-1.141-.316a2.06 2.06 0 0 1-.747-.947l-9.752-24.3h1.101L368 54.298q-.275.632-.826.947a2 2 0 0 1-1.061.316Zm2.084-6.785 1.573-3.393h15.414l1.573 3.393z" mask="url(#a)"/><path stroke="#33c88c" stroke-width="1.317" d="M399.384 55.56a1.98 1.98 0 0 1-1.455-.592q-.59-.592-.589-1.46V26.802q0-.907.589-1.46a1.98 1.98 0 0 1 1.455-.591h7.865q2.949 0 5.23 1.302a9.06 9.06 0 0 1 3.539 3.629q1.297 2.288 1.297 5.286 0 2.88-1.297 5.128a8.93 8.93 0 0 1-3.539 3.511q-2.281 1.262-5.23 1.262h-5.82v8.64q0 .868-.59 1.459-.55.591-1.455.592Zm2.045-14.478h5.82q1.809 0 3.185-.789a5.73 5.73 0 0 0 2.163-2.17q.786-1.38.786-3.155 0-1.893-.786-3.314a5.87 5.87 0 0 0-2.163-2.288q-1.376-.828-3.185-.828h-5.82z" mask="url(#a)"/><path stroke="#33c88c" stroke-width="1.317" d="M433.951 55.954q-2.517 0-4.798-.789-2.28-.789-3.971-2.209t-2.478-3.274q-.393-.828 0-1.538.434-.71 1.416-.908.708-.157 1.376.237.708.355 1.062 1.104.472.987 1.533 1.815 1.101.829 2.635 1.341 1.533.513 3.225.513 1.887 0 3.46-.592 1.612-.592 2.595-1.696.983-1.144.983-2.8 0-2.092-1.651-3.748-1.613-1.657-5.348-2.051-4.876-.474-7.668-2.88t-2.792-5.957q0-2.603 1.455-4.418t3.932-2.761q2.517-.947 5.584-.947 2.399 0 4.168.67 1.81.672 3.146 1.855a12.1 12.1 0 0 1 2.32 2.8q.55.868.433 1.657-.08.75-.748 1.184-.747.473-1.612.197t-1.297-1.026a7 7 0 0 0-1.534-1.933 6.5 6.5 0 0 0-2.123-1.223q-1.22-.473-2.871-.473-2.91-.04-4.876 1.105-1.966 1.104-1.966 3.432a4.8 4.8 0 0 0 .59 2.288q.628 1.065 2.241 1.853 1.651.79 4.719 1.105 4.679.474 7.274 2.88Q445 43.134 445 47.039q0 2.248-.944 3.905a8.4 8.4 0 0 1-2.477 2.801q-1.533 1.104-3.539 1.657a15 15 0 0 1-4.089.552Z" mask="url(#a)"/></svg>