<svg width="446" height="81" viewBox="0 0 446 81" fill="none" xmlns="http://www.w3.org/2000/svg">
<path d="M0 40.1539C0 62.3314 17.9786 80.3107 40.1553 80.3107C42.2854 80.3107 44.3282 79.4645 45.8343 77.9583C47.3405 76.452 48.1867 74.4092 48.1867 72.279C48.1867 70.1489 47.3405 68.106 45.8343 66.5998C44.3282 65.0936 42.2854 64.2474 40.1553 64.2474C35.7688 64.2462 31.4659 63.0473 27.7107 60.7802C23.9554 58.5131 20.8904 55.2637 18.8461 51.3826C16.8018 47.5015 15.8558 43.1358 16.1102 38.7566C16.3646 34.3773 17.8097 30.1506 20.2897 26.5323C22.7697 22.914 26.1904 20.0415 30.1829 18.2245C34.1754 16.4075 38.5882 15.715 42.9453 16.2218C47.3024 16.7285 51.4386 18.4152 54.9076 21.0999C58.3766 23.7846 61.0468 27.3655 62.6303 31.4564C62.6698 31.5619 62.6829 31.6755 62.6686 31.7873C62.6543 31.899 62.613 32.0056 62.5482 32.0979C62.4835 32.1901 62.3972 32.2651 62.297 32.3165C62.1967 32.3679 62.0854 32.3941 61.9727 32.3929H40.1553C38.0253 32.3929 35.9825 33.2391 34.4763 34.7453C32.9701 36.2515 32.124 38.2944 32.124 40.4245C32.124 42.5546 32.9701 44.5975 34.4763 46.1037C35.9825 47.6099 38.0253 48.4561 40.1553 48.4561H72.2793C74.4094 48.4561 76.4522 47.6099 77.9583 46.1037C79.4645 44.5975 80.3107 42.5546 80.3107 40.4245V40.1567C80.3107 17.9792 62.3334 0 40.1553 0C17.9772 0 0 17.9765 0 40.1539Z" fill="#33C88C"/>
<mask id="path-2-outside-1_511_1843" maskUnits="userSpaceOnUse" x="110.908" y="23.3565" width="335" height="34" fill="black">
<rect fill="white" x="110.908" y="23.3565" width="335" height="34"/>
<path d="M113.953 55.5597C113.376 55.5597 112.891 55.3624 112.498 54.968C112.105 54.5735 111.908 54.087 111.908 53.5084V26.8023C111.908 26.1974 112.105 25.7109 112.498 25.3427C112.891 24.9482 113.376 24.751 113.953 24.751H131.727C132.33 24.751 132.815 24.9351 133.182 25.3033C133.549 25.6451 133.732 26.1054 133.732 26.6839C133.732 27.2362 133.549 27.6833 133.182 28.0251C132.815 28.367 132.33 28.538 131.727 28.538H115.998V38.1238H127.283C127.886 38.1238 128.371 38.3079 128.738 38.676C129.105 39.0179 129.289 39.465 129.289 40.0173C129.289 40.5695 129.105 41.0298 128.738 41.3979C128.371 41.7398 127.886 41.9107 127.283 41.9107H115.998V51.7727H131.727C132.33 51.7727 132.815 51.9436 133.182 52.2855C133.549 52.6274 133.732 53.0745 133.732 53.6267C133.732 54.2053 133.549 54.6787 133.182 55.0469C132.815 55.3887 132.33 55.5597 131.727 55.5597H113.953Z"/>
<path d="M143.806 55.5597C143.23 55.5597 142.745 55.3624 142.352 54.968C141.985 54.5735 141.801 54.087 141.801 53.5084V26.8023C141.801 26.2237 141.998 25.7372 142.391 25.3427C142.784 24.9482 143.256 24.751 143.806 24.751C144.383 24.751 144.868 24.9482 145.261 25.3427C145.655 25.7372 145.851 26.2237 145.851 26.8023V51.4571H160.086C160.663 51.4571 161.148 51.6543 161.541 52.0488C161.934 52.4433 162.131 52.9298 162.131 53.5084C162.131 54.087 161.934 54.5735 161.541 54.968C161.148 55.3624 160.663 55.5597 160.086 55.5597H143.806Z"/>
<path d="M171.434 55.5597C170.858 55.5597 170.373 55.3624 169.979 54.968C169.586 54.5735 169.39 54.087 169.39 53.5084V26.8023C169.39 26.1974 169.586 25.7109 169.979 25.3427C170.373 24.9482 170.858 24.751 171.434 24.751H189.208C189.811 24.751 190.296 24.9351 190.663 25.3033C191.03 25.6451 191.214 26.1054 191.214 26.6839C191.214 27.2362 191.03 27.6833 190.663 28.0251C190.296 28.367 189.811 28.538 189.208 28.538H173.479V38.1238H184.765C185.368 38.1238 185.853 38.3079 186.22 38.676C186.587 39.0179 186.77 39.465 186.77 40.0173C186.77 40.5695 186.587 41.0298 186.22 41.3979C185.853 41.7398 185.368 41.9107 184.765 41.9107H173.479V51.7727H189.208C189.811 51.7727 190.296 51.9436 190.663 52.2855C191.03 52.6274 191.214 53.0745 191.214 53.6267C191.214 54.2053 191.03 54.6787 190.663 55.0469C190.296 55.3887 189.811 55.5597 189.208 55.5597H171.434Z"/>
<path d="M213.045 55.9541C210.922 55.9541 208.929 55.5597 207.068 54.7707C205.233 53.9555 203.621 52.8378 202.231 51.4177C200.868 49.9712 199.793 48.2881 199.007 46.3683C198.247 44.4486 197.867 42.371 197.867 40.1356C197.867 37.9265 198.247 35.8752 199.007 33.9818C199.793 32.062 200.868 30.392 202.231 28.9719C203.621 27.5255 205.233 26.3946 207.068 25.5794C208.903 24.7641 210.896 24.3565 213.045 24.3565C215.064 24.3565 216.794 24.6195 218.236 25.1455C219.704 25.6714 221.172 26.5393 222.64 27.749C222.85 27.9068 223.007 28.0777 223.112 28.2618C223.243 28.4196 223.321 28.5906 223.348 28.7747C223.4 28.9324 223.426 29.1297 223.426 29.3664C223.426 29.866 223.243 30.2868 222.876 30.6287C222.535 30.9443 222.115 31.1284 221.617 31.181C221.119 31.2073 220.634 31.0363 220.162 30.6681C219.193 29.8266 218.183 29.1823 217.135 28.7352C216.112 28.2881 214.749 28.0646 213.045 28.0646C211.498 28.0646 210.044 28.3802 208.68 29.0113C207.317 29.6425 206.111 30.5104 205.063 31.6149C204.04 32.7194 203.241 34.0081 202.664 35.4808C202.087 36.9272 201.799 38.4788 201.799 40.1356C201.799 41.8187 202.087 43.3966 202.664 44.8693C203.241 46.3157 204.04 47.5912 205.063 48.6958C206.111 49.8003 207.317 50.6681 208.68 51.2993C210.044 51.9042 211.498 52.2066 213.045 52.2066C214.382 52.2066 215.64 51.9831 216.82 51.536C218.026 51.0626 219.179 50.4183 220.28 49.6031C220.752 49.2612 221.211 49.1165 221.657 49.1691C222.129 49.1954 222.522 49.3795 222.836 49.7214C223.151 50.037 223.308 50.4841 223.308 51.0626C223.308 51.3256 223.256 51.5886 223.151 51.8516C223.046 52.0883 222.889 52.3118 222.679 52.5222C221.264 53.653 219.743 54.5077 218.118 55.0863C216.519 55.6649 214.828 55.9541 213.045 55.9541Z"/>
<path d="M241.292 55.5597C240.715 55.5597 240.23 55.3624 239.837 54.968C239.444 54.5735 239.247 54.087 239.247 53.5084V24.751H243.337V53.5084C243.337 54.087 243.14 54.5735 242.747 54.968C242.354 55.3624 241.869 55.5597 241.292 55.5597ZM230.754 28.538C230.203 28.538 229.744 28.367 229.377 28.0251C229.037 27.657 228.866 27.1967 228.866 26.6445C228.866 26.0922 229.037 25.6451 229.377 25.3033C229.744 24.9351 230.203 24.751 230.754 24.751H251.791C252.342 24.751 252.787 24.9351 253.128 25.3033C253.495 25.6451 253.679 26.0922 253.679 26.6445C253.679 27.1967 253.495 27.657 253.128 28.0251C252.787 28.367 252.342 28.538 251.791 28.538H230.754Z"/>
<path d="M262.61 55.5597C262.033 55.5597 261.548 55.3624 261.155 54.968C260.762 54.5735 260.565 54.087 260.565 53.5084V26.8023C260.565 26.1974 260.762 25.7109 261.155 25.3427C261.548 24.9482 262.033 24.751 262.61 24.751H269.688C271.654 24.751 273.397 25.1718 274.918 26.0133C276.438 26.8286 277.618 27.9594 278.457 29.4058C279.322 30.8522 279.755 32.5353 279.755 34.4551C279.755 36.2434 279.322 37.8345 278.457 39.2283C277.618 40.6221 276.438 41.7135 274.918 42.5025C273.397 43.2914 271.654 43.6859 269.688 43.6859H264.655V53.5084C264.655 54.087 264.458 54.5735 264.065 54.968C263.698 55.3624 263.213 55.5597 262.61 55.5597ZM278.929 55.5597C278.562 55.5597 278.221 55.4808 277.906 55.323C277.618 55.1652 277.369 54.9154 277.159 54.5735L270.081 43.1336L274.053 41.9896L280.502 52.4038C280.974 53.1665 281.039 53.8897 280.698 54.5735C280.358 55.2309 279.768 55.5597 278.929 55.5597ZM264.655 39.8989H269.688C270.894 39.8989 271.956 39.6754 272.873 39.2283C273.791 38.7549 274.512 38.1106 275.036 37.2954C275.56 36.4538 275.822 35.5071 275.822 34.4551C275.822 33.298 275.56 32.2724 275.036 31.3782C274.512 30.4841 273.791 29.7871 272.873 29.2875C271.956 28.7878 270.894 28.538 269.688 28.538H264.655V39.8989Z"/>
<path d="M301.965 55.9541C299.658 55.9541 297.548 55.5728 295.634 54.8102C293.721 54.0212 292.069 52.9298 290.68 51.536C289.317 50.1159 288.255 48.4459 287.495 46.5261C286.734 44.58 286.354 42.4499 286.354 40.1356C286.354 37.8213 286.734 35.7043 287.495 33.7845C288.255 31.8647 289.317 30.2079 290.68 28.8141C292.069 27.394 293.721 26.3026 295.634 25.5399C297.548 24.751 299.658 24.3565 301.965 24.3565C304.272 24.3565 306.369 24.751 308.257 25.5399C310.171 26.3026 311.822 27.394 313.211 28.8141C314.601 30.2079 315.676 31.8647 316.436 33.7845C317.196 35.7043 317.576 37.8213 317.576 40.1356C317.576 42.4499 317.196 44.58 316.436 46.5261C315.676 48.4459 314.601 50.1159 313.211 51.536C311.822 52.9298 310.171 54.0212 308.257 54.8102C306.369 55.5728 304.272 55.9541 301.965 55.9541ZM301.965 52.2461C303.669 52.2461 305.229 51.9436 306.645 51.3388C308.086 50.7076 309.332 49.8529 310.38 48.7747C311.429 47.6701 312.228 46.3815 312.779 44.9088C313.356 43.4361 313.644 41.845 313.644 40.1356C313.644 38.4262 313.356 36.8351 312.779 35.3624C312.228 33.8897 311.429 32.6142 310.38 31.536C309.332 30.4315 308.086 29.5768 306.645 28.9719C305.229 28.367 303.669 28.0646 301.965 28.0646C300.261 28.0646 298.688 28.367 297.247 28.9719C295.831 29.5768 294.599 30.4315 293.55 31.536C292.528 32.6142 291.728 33.8897 291.152 35.3624C290.575 36.8351 290.287 38.4262 290.287 40.1356C290.287 41.845 290.575 43.4361 291.152 44.9088C291.728 46.3815 292.528 47.6701 293.55 48.7747C294.599 49.8529 295.831 50.7076 297.247 51.3388C298.688 51.9436 300.261 52.2461 301.965 52.2461Z"/>
<path d="M328.386 55.5597C327.809 55.5597 327.324 55.3624 326.931 54.968C326.538 54.5735 326.341 54.087 326.341 53.5084V26.8023C326.341 26.1974 326.538 25.7109 326.931 25.3427C327.324 24.9482 327.809 24.751 328.386 24.751C329.172 24.751 329.775 25.1192 330.195 25.8555L342.503 50.5893H341.244L353.238 25.8555C353.657 25.1192 354.26 24.751 355.046 24.751C355.623 24.751 356.108 24.9482 356.501 25.3427C356.895 25.7109 357.091 26.1974 357.091 26.8023V53.5084C357.091 54.087 356.882 54.5735 356.462 54.968C356.069 55.3624 355.597 55.5597 355.046 55.5597C354.47 55.5597 353.985 55.3624 353.592 54.968C353.198 54.5735 353.002 54.087 353.002 53.5084V32.4827L353.788 32.2855L343.486 53.3506C343.04 54.0344 342.45 54.3762 341.716 54.3762C340.851 54.3762 340.222 53.9686 339.829 53.1534L329.644 32.68L330.431 32.4827V53.5084C330.431 54.087 330.234 54.5735 329.841 54.968C329.448 55.3624 328.963 55.5597 328.386 55.5597Z"/>
<path d="M366.113 55.5597C365.379 55.5597 364.815 55.2441 364.422 54.6129C364.029 53.9818 363.989 53.3112 364.304 52.6011L375.353 26.1317C375.747 25.2112 376.389 24.751 377.28 24.751C378.224 24.751 378.866 25.2112 379.207 26.1317L390.296 52.68C390.584 53.4163 390.532 54.087 390.139 54.6918C389.772 55.2704 389.208 55.5597 388.448 55.5597C388.055 55.5597 387.674 55.4545 387.307 55.2441C386.967 55.0074 386.718 54.6918 386.56 54.2973L376.808 29.9975H377.909L368 54.2973C367.817 54.7181 367.541 55.0337 367.174 55.2441C366.834 55.4545 366.48 55.5597 366.113 55.5597ZM368.197 48.7747L369.77 45.3822H385.184L386.757 48.7747H368.197Z"/>
<path d="M399.384 55.5597C398.808 55.5597 398.323 55.3624 397.929 54.968C397.536 54.5735 397.34 54.087 397.34 53.5084V26.8023C397.34 26.1974 397.536 25.7109 397.929 25.3427C398.323 24.9482 398.808 24.751 399.384 24.751H407.249C409.215 24.751 410.958 25.1849 412.479 26.0528C413.999 26.9206 415.179 28.1303 416.018 29.682C416.883 31.2073 417.315 32.9693 417.315 34.9679C417.315 36.8877 416.883 38.5971 416.018 40.0962C415.179 41.5952 413.999 42.7655 412.479 43.607C410.958 44.4486 409.215 44.8693 407.249 44.8693H401.429V53.5084C401.429 54.087 401.232 54.5735 400.839 54.968C400.472 55.3624 399.987 55.5597 399.384 55.5597ZM401.429 41.0823H407.249C408.455 41.0823 409.516 40.8194 410.434 40.2934C411.351 39.7674 412.072 39.0442 412.597 38.1238C413.121 37.2033 413.383 36.1514 413.383 34.9679C413.383 33.7056 413.121 32.6011 412.597 31.6543C412.072 30.6813 411.351 29.9186 410.434 29.3664C409.516 28.8141 408.455 28.538 407.249 28.538H401.429V41.0823Z"/>
<path d="M433.951 55.9541C432.273 55.9541 430.674 55.6912 429.153 55.1652C427.633 54.6392 426.309 53.9029 425.182 52.9561C424.054 52.0094 423.229 50.918 422.704 49.682C422.442 49.1297 422.442 48.6169 422.704 48.1435C422.993 47.6701 423.465 47.3677 424.12 47.2362C424.592 47.131 425.051 47.2099 425.496 47.4729C425.968 47.7096 426.322 48.0777 426.558 48.5774C426.872 49.2349 427.384 49.8397 428.091 50.392C428.825 50.9443 429.704 51.3914 430.726 51.7332C431.748 52.0751 432.823 52.2461 433.951 52.2461C435.209 52.2461 436.362 52.0488 437.411 51.6543C438.486 51.2599 439.351 50.6944 440.006 49.9581C440.661 49.1954 440.989 48.2618 440.989 47.1573C440.989 45.7635 440.439 44.5143 439.338 43.4098C438.263 42.3052 436.48 41.6215 433.99 41.3585C430.739 41.0429 428.183 40.083 426.322 38.4788C424.461 36.8746 423.53 34.8891 423.53 32.5222C423.53 30.7865 424.015 29.3138 424.985 28.104C425.955 26.8943 427.266 25.9739 428.917 25.3427C430.595 24.7115 432.456 24.396 434.501 24.396C436.1 24.396 437.49 24.6195 438.669 25.0666C439.875 25.5136 440.924 26.1317 441.815 26.9206C442.706 27.7096 443.48 28.6432 444.135 29.7214C444.502 30.3 444.646 30.8522 444.568 31.3782C444.515 31.8779 444.266 32.2724 443.82 32.5616C443.322 32.8772 442.785 32.943 442.208 32.7589C441.631 32.5748 441.199 32.2329 440.911 31.7332C440.491 30.9706 439.98 30.3263 439.377 29.8003C438.774 29.2743 438.066 28.8667 437.254 28.5774C436.441 28.2618 435.484 28.104 434.383 28.104C432.443 28.0777 430.818 28.4459 429.507 29.2086C428.196 29.9449 427.541 31.0889 427.541 32.6405C427.541 33.4295 427.738 34.1921 428.131 34.9285C428.55 35.6386 429.297 36.2566 430.372 36.7825C431.473 37.3085 433.046 37.6767 435.091 37.8871C438.21 38.2027 440.635 39.1626 442.365 40.7668C444.122 42.3447 445 44.4354 445 47.039C445 48.538 444.686 49.8397 444.056 50.9443C443.453 52.0488 442.628 52.9824 441.579 53.7451C440.557 54.4814 439.377 55.0337 438.04 55.4019C436.729 55.7701 435.366 55.9541 433.951 55.9541Z"/>
</mask>
<path d="M113.953 55.5597C113.376 55.5597 112.891 55.3624 112.498 54.968C112.105 54.5735 111.908 54.087 111.908 53.5084V26.8023C111.908 26.1974 112.105 25.7109 112.498 25.3427C112.891 24.9482 113.376 24.751 113.953 24.751H131.727C132.33 24.751 132.815 24.9351 133.182 25.3033C133.549 25.6451 133.732 26.1054 133.732 26.6839C133.732 27.2362 133.549 27.6833 133.182 28.0251C132.815 28.367 132.33 28.538 131.727 28.538H115.998V38.1238H127.283C127.886 38.1238 128.371 38.3079 128.738 38.676C129.105 39.0179 129.289 39.465 129.289 40.0173C129.289 40.5695 129.105 41.0298 128.738 41.3979C128.371 41.7398 127.886 41.9107 127.283 41.9107H115.998V51.7727H131.727C132.33 51.7727 132.815 51.9436 133.182 52.2855C133.549 52.6274 133.732 53.0745 133.732 53.6267C133.732 54.2053 133.549 54.6787 133.182 55.0469C132.815 55.3887 132.33 55.5597 131.727 55.5597H113.953Z" fill="#33C88C"/>
<path d="M143.806 55.5597C143.23 55.5597 142.745 55.3624 142.352 54.968C141.985 54.5735 141.801 54.087 141.801 53.5084V26.8023C141.801 26.2237 141.998 25.7372 142.391 25.3427C142.784 24.9482 143.256 24.751 143.806 24.751C144.383 24.751 144.868 24.9482 145.261 25.3427C145.655 25.7372 145.851 26.2237 145.851 26.8023V51.4571H160.086C160.663 51.4571 161.148 51.6543 161.541 52.0488C161.934 52.4433 162.131 52.9298 162.131 53.5084C162.131 54.087 161.934 54.5735 161.541 54.968C161.148 55.3624 160.663 55.5597 160.086 55.5597H143.806Z" fill="#33C88C"/>
<path d="M171.434 55.5597C170.858 55.5597 170.373 55.3624 169.979 54.968C169.586 54.5735 169.39 54.087 169.39 53.5084V26.8023C169.39 26.1974 169.586 25.7109 169.979 25.3427C170.373 24.9482 170.858 24.751 171.434 24.751H189.208C189.811 24.751 190.296 24.9351 190.663 25.3033C191.03 25.6451 191.214 26.1054 191.214 26.6839C191.214 27.2362 191.03 27.6833 190.663 28.0251C190.296 28.367 189.811 28.538 189.208 28.538H173.479V38.1238H184.765C185.368 38.1238 185.853 38.3079 186.22 38.676C186.587 39.0179 186.77 39.465 186.77 40.0173C186.77 40.5695 186.587 41.0298 186.22 41.3979C185.853 41.7398 185.368 41.9107 184.765 41.9107H173.479V51.7727H189.208C189.811 51.7727 190.296 51.9436 190.663 52.2855C191.03 52.6274 191.214 53.0745 191.214 53.6267C191.214 54.2053 191.03 54.6787 190.663 55.0469C190.296 55.3887 189.811 55.5597 189.208 55.5597H171.434Z" fill="#33C88C"/>
<path d="M213.045 55.9541C210.922 55.9541 208.929 55.5597 207.068 54.7707C205.233 53.9555 203.621 52.8378 202.231 51.4177C200.868 49.9712 199.793 48.2881 199.007 46.3683C198.247 44.4486 197.867 42.371 197.867 40.1356C197.867 37.9265 198.247 35.8752 199.007 33.9818C199.793 32.062 200.868 30.392 202.231 28.9719C203.621 27.5255 205.233 26.3946 207.068 25.5794C208.903 24.7641 210.896 24.3565 213.045 24.3565C215.064 24.3565 216.794 24.6195 218.236 25.1455C219.704 25.6714 221.172 26.5393 222.64 27.749C222.85 27.9068 223.007 28.0777 223.112 28.2618C223.243 28.4196 223.321 28.5906 223.348 28.7747C223.4 28.9324 223.426 29.1297 223.426 29.3664C223.426 29.866 223.243 30.2868 222.876 30.6287C222.535 30.9443 222.115 31.1284 221.617 31.181C221.119 31.2073 220.634 31.0363 220.162 30.6681C219.193 29.8266 218.183 29.1823 217.135 28.7352C216.112 28.2881 214.749 28.0646 213.045 28.0646C211.498 28.0646 210.044 28.3802 208.68 29.0113C207.317 29.6425 206.111 30.5104 205.063 31.6149C204.04 32.7194 203.241 34.0081 202.664 35.4808C202.087 36.9272 201.799 38.4788 201.799 40.1356C201.799 41.8187 202.087 43.3966 202.664 44.8693C203.241 46.3157 204.04 47.5912 205.063 48.6958C206.111 49.8003 207.317 50.6681 208.68 51.2993C210.044 51.9042 211.498 52.2066 213.045 52.2066C214.382 52.2066 215.64 51.9831 216.82 51.536C218.026 51.0626 219.179 50.4183 220.28 49.6031C220.752 49.2612 221.211 49.1165 221.657 49.1691C222.129 49.1954 222.522 49.3795 222.836 49.7214C223.151 50.037 223.308 50.4841 223.308 51.0626C223.308 51.3256 223.256 51.5886 223.151 51.8516C223.046 52.0883 222.889 52.3118 222.679 52.5222C221.264 53.653 219.743 54.5077 218.118 55.0863C216.519 55.6649 214.828 55.9541 213.045 55.9541Z" fill="#33C88C"/>
<path d="M241.292 55.5597C240.715 55.5597 240.23 55.3624 239.837 54.968C239.444 54.5735 239.247 54.087 239.247 53.5084V24.751H243.337V53.5084C243.337 54.087 243.14 54.5735 242.747 54.968C242.354 55.3624 241.869 55.5597 241.292 55.5597ZM230.754 28.538C230.203 28.538 229.744 28.367 229.377 28.0251C229.037 27.657 228.866 27.1967 228.866 26.6445C228.866 26.0922 229.037 25.6451 229.377 25.3033C229.744 24.9351 230.203 24.751 230.754 24.751H251.791C252.342 24.751 252.787 24.9351 253.128 25.3033C253.495 25.6451 253.679 26.0922 253.679 26.6445C253.679 27.1967 253.495 27.657 253.128 28.0251C252.787 28.367 252.342 28.538 251.791 28.538H230.754Z" fill="#33C88C"/>
<path d="M262.61 55.5597C262.033 55.5597 261.548 55.3624 261.155 54.968C260.762 54.5735 260.565 54.087 260.565 53.5084V26.8023C260.565 26.1974 260.762 25.7109 261.155 25.3427C261.548 24.9482 262.033 24.751 262.61 24.751H269.688C271.654 24.751 273.397 25.1718 274.918 26.0133C276.438 26.8286 277.618 27.9594 278.457 29.4058C279.322 30.8522 279.755 32.5353 279.755 34.4551C279.755 36.2434 279.322 37.8345 278.457 39.2283C277.618 40.6221 276.438 41.7135 274.918 42.5025C273.397 43.2914 271.654 43.6859 269.688 43.6859H264.655V53.5084C264.655 54.087 264.458 54.5735 264.065 54.968C263.698 55.3624 263.213 55.5597 262.61 55.5597ZM278.929 55.5597C278.562 55.5597 278.221 55.4808 277.906 55.323C277.618 55.1652 277.369 54.9154 277.159 54.5735L270.081 43.1336L274.053 41.9896L280.502 52.4038C280.974 53.1665 281.039 53.8897 280.698 54.5735C280.358 55.2309 279.768 55.5597 278.929 55.5597ZM264.655 39.8989H269.688C270.894 39.8989 271.956 39.6754 272.873 39.2283C273.791 38.7549 274.512 38.1106 275.036 37.2954C275.56 36.4538 275.822 35.5071 275.822 34.4551C275.822 33.298 275.56 32.2724 275.036 31.3782C274.512 30.4841 273.791 29.7871 272.873 29.2875C271.956 28.7878 270.894 28.538 269.688 28.538H264.655V39.8989Z" fill="#33C88C"/>
<path d="M301.965 55.9541C299.658 55.9541 297.548 55.5728 295.634 54.8102C293.721 54.0212 292.069 52.9298 290.68 51.536C289.317 50.1159 288.255 48.4459 287.495 46.5261C286.734 44.58 286.354 42.4499 286.354 40.1356C286.354 37.8213 286.734 35.7043 287.495 33.7845C288.255 31.8647 289.317 30.2079 290.68 28.8141C292.069 27.394 293.721 26.3026 295.634 25.5399C297.548 24.751 299.658 24.3565 301.965 24.3565C304.272 24.3565 306.369 24.751 308.257 25.5399C310.171 26.3026 311.822 27.394 313.211 28.8141C314.601 30.2079 315.676 31.8647 316.436 33.7845C317.196 35.7043 317.576 37.8213 317.576 40.1356C317.576 42.4499 317.196 44.58 316.436 46.5261C315.676 48.4459 314.601 50.1159 313.211 51.536C311.822 52.9298 310.171 54.0212 308.257 54.8102C306.369 55.5728 304.272 55.9541 301.965 55.9541ZM301.965 52.2461C303.669 52.2461 305.229 51.9436 306.645 51.3388C308.086 50.7076 309.332 49.8529 310.38 48.7747C311.429 47.6701 312.228 46.3815 312.779 44.9088C313.356 43.4361 313.644 41.845 313.644 40.1356C313.644 38.4262 313.356 36.8351 312.779 35.3624C312.228 33.8897 311.429 32.6142 310.38 31.536C309.332 30.4315 308.086 29.5768 306.645 28.9719C305.229 28.367 303.669 28.0646 301.965 28.0646C300.261 28.0646 298.688 28.367 297.247 28.9719C295.831 29.5768 294.599 30.4315 293.55 31.536C292.528 32.6142 291.728 33.8897 291.152 35.3624C290.575 36.8351 290.287 38.4262 290.287 40.1356C290.287 41.845 290.575 43.4361 291.152 44.9088C291.728 46.3815 292.528 47.6701 293.55 48.7747C294.599 49.8529 295.831 50.7076 297.247 51.3388C298.688 51.9436 300.261 52.2461 301.965 52.2461Z" fill="#33C88C"/>
<path d="M328.386 55.5597C327.809 55.5597 327.324 55.3624 326.931 54.968C326.538 54.5735 326.341 54.087 326.341 53.5084V26.8023C326.341 26.1974 326.538 25.7109 326.931 25.3427C327.324 24.9482 327.809 24.751 328.386 24.751C329.172 24.751 329.775 25.1192 330.195 25.8555L342.503 50.5893H341.244L353.238 25.8555C353.657 25.1192 354.26 24.751 355.046 24.751C355.623 24.751 356.108 24.9482 356.501 25.3427C356.895 25.7109 357.091 26.1974 357.091 26.8023V53.5084C357.091 54.087 356.882 54.5735 356.462 54.968C356.069 55.3624 355.597 55.5597 355.046 55.5597C354.47 55.5597 353.985 55.3624 353.592 54.968C353.198 54.5735 353.002 54.087 353.002 53.5084V32.4827L353.788 32.2855L343.486 53.3506C343.04 54.0344 342.45 54.3762 341.716 54.3762C340.851 54.3762 340.222 53.9686 339.829 53.1534L329.644 32.68L330.431 32.4827V53.5084C330.431 54.087 330.234 54.5735 329.841 54.968C329.448 55.3624 328.963 55.5597 328.386 55.5597Z" fill="#33C88C"/>
<path d="M366.113 55.5597C365.379 55.5597 364.815 55.2441 364.422 54.6129C364.029 53.9818 363.989 53.3112 364.304 52.6011L375.353 26.1317C375.747 25.2112 376.389 24.751 377.28 24.751C378.224 24.751 378.866 25.2112 379.207 26.1317L390.296 52.68C390.584 53.4163 390.532 54.087 390.139 54.6918C389.772 55.2704 389.208 55.5597 388.448 55.5597C388.055 55.5597 387.674 55.4545 387.307 55.2441C386.967 55.0074 386.718 54.6918 386.56 54.2973L376.808 29.9975H377.909L368 54.2973C367.817 54.7181 367.541 55.0337 367.174 55.2441C366.834 55.4545 366.48 55.5597 366.113 55.5597ZM368.197 48.7747L369.77 45.3822H385.184L386.757 48.7747H368.197Z" fill="#33C88C"/>
<path d="M399.384 55.5597C398.808 55.5597 398.323 55.3624 397.929 54.968C397.536 54.5735 397.34 54.087 397.34 53.5084V26.8023C397.34 26.1974 397.536 25.7109 397.929 25.3427C398.323 24.9482 398.808 24.751 399.384 24.751H407.249C409.215 24.751 410.958 25.1849 412.479 26.0528C413.999 26.9206 415.179 28.1303 416.018 29.682C416.883 31.2073 417.315 32.9693 417.315 34.9679C417.315 36.8877 416.883 38.5971 416.018 40.0962C415.179 41.5952 413.999 42.7655 412.479 43.607C410.958 44.4486 409.215 44.8693 407.249 44.8693H401.429V53.5084C401.429 54.087 401.232 54.5735 400.839 54.968C400.472 55.3624 399.987 55.5597 399.384 55.5597ZM401.429 41.0823H407.249C408.455 41.0823 409.516 40.8194 410.434 40.2934C411.351 39.7674 412.072 39.0442 412.597 38.1238C413.121 37.2033 413.383 36.1514 413.383 34.9679C413.383 33.7056 413.121 32.6011 412.597 31.6543C412.072 30.6813 411.351 29.9186 410.434 29.3664C409.516 28.8141 408.455 28.538 407.249 28.538H401.429V41.0823Z" fill="#33C88C"/>
<path d="M433.951 55.9541C432.273 55.9541 430.674 55.6912 429.153 55.1652C427.633 54.6392 426.309 53.9029 425.182 52.9561C424.054 52.0094 423.229 50.918 422.704 49.682C422.442 49.1297 422.442 48.6169 422.704 48.1435C422.993 47.6701 423.465 47.3677 424.12 47.2362C424.592 47.131 425.051 47.2099 425.496 47.4729C425.968 47.7096 426.322 48.0777 426.558 48.5774C426.872 49.2349 427.384 49.8397 428.091 50.392C428.825 50.9443 429.704 51.3914 430.726 51.7332C431.748 52.0751 432.823 52.2461 433.951 52.2461C435.209 52.2461 436.362 52.0488 437.411 51.6543C438.486 51.2599 439.351 50.6944 440.006 49.9581C440.661 49.1954 440.989 48.2618 440.989 47.1573C440.989 45.7635 440.439 44.5143 439.338 43.4098C438.263 42.3052 436.48 41.6215 433.99 41.3585C430.739 41.0429 428.183 40.083 426.322 38.4788C424.461 36.8746 423.53 34.8891 423.53 32.5222C423.53 30.7865 424.015 29.3138 424.985 28.104C425.955 26.8943 427.266 25.9739 428.917 25.3427C430.595 24.7115 432.456 24.396 434.501 24.396C436.1 24.396 437.49 24.6195 438.669 25.0666C439.875 25.5136 440.924 26.1317 441.815 26.9206C442.706 27.7096 443.48 28.6432 444.135 29.7214C444.502 30.3 444.646 30.8522 444.568 31.3782C444.515 31.8779 444.266 32.2724 443.82 32.5616C443.322 32.8772 442.785 32.943 442.208 32.7589C441.631 32.5748 441.199 32.2329 440.911 31.7332C440.491 30.9706 439.98 30.3263 439.377 29.8003C438.774 29.2743 438.066 28.8667 437.254 28.5774C436.441 28.2618 435.484 28.104 434.383 28.104C432.443 28.0777 430.818 28.4459 429.507 29.2086C428.196 29.9449 427.541 31.0889 427.541 32.6405C427.541 33.4295 427.738 34.1921 428.131 34.9285C428.55 35.6386 429.297 36.2566 430.372 36.7825C431.473 37.3085 433.046 37.6767 435.091 37.8871C438.21 38.2027 440.635 39.1626 442.365 40.7668C444.122 42.3447 445 44.4354 445 47.039C445 48.538 444.686 49.8397 444.056 50.9443C443.453 52.0488 442.628 52.9824 441.579 53.7451C440.557 54.4814 439.377 55.0337 438.04 55.4019C436.729 55.7701 435.366 55.9541 433.951 55.9541Z" fill="#33C88C"/>
<path d="M113.953 55.5597C113.376 55.5597 112.891 55.3624 112.498 54.968C112.105 54.5735 111.908 54.087 111.908 53.5084V26.8023C111.908 26.1974 112.105 25.7109 112.498 25.3427C112.891 24.9482 113.376 24.751 113.953 24.751H131.727C132.33 24.751 132.815 24.9351 133.182 25.3033C133.549 25.6451 133.732 26.1054 133.732 26.6839C133.732 27.2362 133.549 27.6833 133.182 28.0251C132.815 28.367 132.33 28.538 131.727 28.538H115.998V38.1238H127.283C127.886 38.1238 128.371 38.3079 128.738 38.676C129.105 39.0179 129.289 39.465 129.289 40.0173C129.289 40.5695 129.105 41.0298 128.738 41.3979C128.371 41.7398 127.886 41.9107 127.283 41.9107H115.998V51.7727H131.727C132.33 51.7727 132.815 51.9436 133.182 52.2855C133.549 52.6274 133.732 53.0745 133.732 53.6267C133.732 54.2053 133.549 54.6787 133.182 55.0469C132.815 55.3887 132.33 55.5597 131.727 55.5597H113.953Z" stroke="#33C88C" stroke-width="1.31657" mask="url(#path-2-outside-1_511_1843)"/>
<path d="M143.806 55.5597C143.23 55.5597 142.745 55.3624 142.352 54.968C141.985 54.5735 141.801 54.087 141.801 53.5084V26.8023C141.801 26.2237 141.998 25.7372 142.391 25.3427C142.784 24.9482 143.256 24.751 143.806 24.751C144.383 24.751 144.868 24.9482 145.261 25.3427C145.655 25.7372 145.851 26.2237 145.851 26.8023V51.4571H160.086C160.663 51.4571 161.148 51.6543 161.541 52.0488C161.934 52.4433 162.131 52.9298 162.131 53.5084C162.131 54.087 161.934 54.5735 161.541 54.968C161.148 55.3624 160.663 55.5597 160.086 55.5597H143.806Z" stroke="#33C88C" stroke-width="1.31657" mask="url(#path-2-outside-1_511_1843)"/>
<path d="M171.434 55.5597C170.858 55.5597 170.373 55.3624 169.979 54.968C169.586 54.5735 169.39 54.087 169.39 53.5084V26.8023C169.39 26.1974 169.586 25.7109 169.979 25.3427C170.373 24.9482 170.858 24.751 171.434 24.751H189.208C189.811 24.751 190.296 24.9351 190.663 25.3033C191.03 25.6451 191.214 26.1054 191.214 26.6839C191.214 27.2362 191.03 27.6833 190.663 28.0251C190.296 28.367 189.811 28.538 189.208 28.538H173.479V38.1238H184.765C185.368 38.1238 185.853 38.3079 186.22 38.676C186.587 39.0179 186.77 39.465 186.77 40.0173C186.77 40.5695 186.587 41.0298 186.22 41.3979C185.853 41.7398 185.368 41.9107 184.765 41.9107H173.479V51.7727H189.208C189.811 51.7727 190.296 51.9436 190.663 52.2855C191.03 52.6274 191.214 53.0745 191.214 53.6267C191.214 54.2053 191.03 54.6787 190.663 55.0469C190.296 55.3887 189.811 55.5597 189.208 55.5597H171.434Z" stroke="#33C88C" stroke-width="1.31657" mask="url(#path-2-outside-1_511_1843)"/>
<path d="M213.045 55.9541C210.922 55.9541 208.929 55.5597 207.068 54.7707C205.233 53.9555 203.621 52.8378 202.231 51.4177C200.868 49.9712 199.793 48.2881 199.007 46.3683C198.247 44.4486 197.867 42.371 197.867 40.1356C197.867 37.9265 198.247 35.8752 199.007 33.9818C199.793 32.062 200.868 30.392 202.231 28.9719C203.621 27.5255 205.233 26.3946 207.068 25.5794C208.903 24.7641 210.896 24.3565 213.045 24.3565C215.064 24.3565 216.794 24.6195 218.236 25.1455C219.704 25.6714 221.172 26.5393 222.64 27.749C222.85 27.9068 223.007 28.0777 223.112 28.2618C223.243 28.4196 223.321 28.5906 223.348 28.7747C223.4 28.9324 223.426 29.1297 223.426 29.3664C223.426 29.866 223.243 30.2868 222.876 30.6287C222.535 30.9443 222.115 31.1284 221.617 31.181C221.119 31.2073 220.634 31.0363 220.162 30.6681C219.193 29.8266 218.183 29.1823 217.135 28.7352C216.112 28.2881 214.749 28.0646 213.045 28.0646C211.498 28.0646 210.044 28.3802 208.68 29.0113C207.317 29.6425 206.111 30.5104 205.063 31.6149C204.04 32.7194 203.241 34.0081 202.664 35.4808C202.087 36.9272 201.799 38.4788 201.799 40.1356C201.799 41.8187 202.087 43.3966 202.664 44.8693C203.241 46.3157 204.04 47.5912 205.063 48.6958C206.111 49.8003 207.317 50.6681 208.68 51.2993C210.044 51.9042 211.498 52.2066 213.045 52.2066C214.382 52.2066 215.64 51.9831 216.82 51.536C218.026 51.0626 219.179 50.4183 220.28 49.6031C220.752 49.2612 221.211 49.1165 221.657 49.1691C222.129 49.1954 222.522 49.3795 222.836 49.7214C223.151 50.037 223.308 50.4841 223.308 51.0626C223.308 51.3256 223.256 51.5886 223.151 51.8516C223.046 52.0883 222.889 52.3118 222.679 52.5222C221.264 53.653 219.743 54.5077 218.118 55.0863C216.519 55.6649 214.828 55.9541 213.045 55.9541Z" stroke="#33C88C" stroke-width="1.31657" mask="url(#path-2-outside-1_511_1843)"/>
<path d="M241.292 55.5597C240.715 55.5597 240.23 55.3624 239.837 54.968C239.444 54.5735 239.247 54.087 239.247 53.5084V24.751H243.337V53.5084C243.337 54.087 243.14 54.5735 242.747 54.968C242.354 55.3624 241.869 55.5597 241.292 55.5597ZM230.754 28.538C230.203 28.538 229.744 28.367 229.377 28.0251C229.037 27.657 228.866 27.1967 228.866 26.6445C228.866 26.0922 229.037 25.6451 229.377 25.3033C229.744 24.9351 230.203 24.751 230.754 24.751H251.791C252.342 24.751 252.787 24.9351 253.128 25.3033C253.495 25.6451 253.679 26.0922 253.679 26.6445C253.679 27.1967 253.495 27.657 253.128 28.0251C252.787 28.367 252.342 28.538 251.791 28.538H230.754Z" stroke="#33C88C" stroke-width="1.31657" mask="url(#path-2-outside-1_511_1843)"/>
<path d="M262.61 55.5597C262.033 55.5597 261.548 55.3624 261.155 54.968C260.762 54.5735 260.565 54.087 260.565 53.5084V26.8023C260.565 26.1974 260.762 25.7109 261.155 25.3427C261.548 24.9482 262.033 24.751 262.61 24.751H269.688C271.654 24.751 273.397 25.1718 274.918 26.0133C276.438 26.8286 277.618 27.9594 278.457 29.4058C279.322 30.8522 279.755 32.5353 279.755 34.4551C279.755 36.2434 279.322 37.8345 278.457 39.2283C277.618 40.6221 276.438 41.7135 274.918 42.5025C273.397 43.2914 271.654 43.6859 269.688 43.6859H264.655V53.5084C264.655 54.087 264.458 54.5735 264.065 54.968C263.698 55.3624 263.213 55.5597 262.61 55.5597ZM278.929 55.5597C278.562 55.5597 278.221 55.4808 277.906 55.323C277.618 55.1652 277.369 54.9154 277.159 54.5735L270.081 43.1336L274.053 41.9896L280.502 52.4038C280.974 53.1665 281.039 53.8897 280.698 54.5735C280.358 55.2309 279.768 55.5597 278.929 55.5597ZM264.655 39.8989H269.688C270.894 39.8989 271.956 39.6754 272.873 39.2283C273.791 38.7549 274.512 38.1106 275.036 37.2954C275.56 36.4538 275.822 35.5071 275.822 34.4551C275.822 33.298 275.56 32.2724 275.036 31.3782C274.512 30.4841 273.791 29.7871 272.873 29.2875C271.956 28.7878 270.894 28.538 269.688 28.538H264.655V39.8989Z" stroke="#33C88C" stroke-width="1.31657" mask="url(#path-2-outside-1_511_1843)"/>
<path d="M301.965 55.9541C299.658 55.9541 297.548 55.5728 295.634 54.8102C293.721 54.0212 292.069 52.9298 290.68 51.536C289.317 50.1159 288.255 48.4459 287.495 46.5261C286.734 44.58 286.354 42.4499 286.354 40.1356C286.354 37.8213 286.734 35.7043 287.495 33.7845C288.255 31.8647 289.317 30.2079 290.68 28.8141C292.069 27.394 293.721 26.3026 295.634 25.5399C297.548 24.751 299.658 24.3565 301.965 24.3565C304.272 24.3565 306.369 24.751 308.257 25.5399C310.171 26.3026 311.822 27.394 313.211 28.8141C314.601 30.2079 315.676 31.8647 316.436 33.7845C317.196 35.7043 317.576 37.8213 317.576 40.1356C317.576 42.4499 317.196 44.58 316.436 46.5261C315.676 48.4459 314.601 50.1159 313.211 51.536C311.822 52.9298 310.171 54.0212 308.257 54.8102C306.369 55.5728 304.272 55.9541 301.965 55.9541ZM301.965 52.2461C303.669 52.2461 305.229 51.9436 306.645 51.3388C308.086 50.7076 309.332 49.8529 310.38 48.7747C311.429 47.6701 312.228 46.3815 312.779 44.9088C313.356 43.4361 313.644 41.845 313.644 40.1356C313.644 38.4262 313.356 36.8351 312.779 35.3624C312.228 33.8897 311.429 32.6142 310.38 31.536C309.332 30.4315 308.086 29.5768 306.645 28.9719C305.229 28.367 303.669 28.0646 301.965 28.0646C300.261 28.0646 298.688 28.367 297.247 28.9719C295.831 29.5768 294.599 30.4315 293.55 31.536C292.528 32.6142 291.728 33.8897 291.152 35.3624C290.575 36.8351 290.287 38.4262 290.287 40.1356C290.287 41.845 290.575 43.4361 291.152 44.9088C291.728 46.3815 292.528 47.6701 293.55 48.7747C294.599 49.8529 295.831 50.7076 297.247 51.3388C298.688 51.9436 300.261 52.2461 301.965 52.2461Z" stroke="#33C88C" stroke-width="1.31657" mask="url(#path-2-outside-1_511_1843)"/>
<path d="M328.386 55.5597C327.809 55.5597 327.324 55.3624 326.931 54.968C326.538 54.5735 326.341 54.087 326.341 53.5084V26.8023C326.341 26.1974 326.538 25.7109 326.931 25.3427C327.324 24.9482 327.809 24.751 328.386 24.751C329.172 24.751 329.775 25.1192 330.195 25.8555L342.503 50.5893H341.244L353.238 25.8555C353.657 25.1192 354.26 24.751 355.046 24.751C355.623 24.751 356.108 24.9482 356.501 25.3427C356.895 25.7109 357.091 26.1974 357.091 26.8023V53.5084C357.091 54.087 356.882 54.5735 356.462 54.968C356.069 55.3624 355.597 55.5597 355.046 55.5597C354.47 55.5597 353.985 55.3624 353.592 54.968C353.198 54.5735 353.002 54.087 353.002 53.5084V32.4827L353.788 32.2855L343.486 53.3506C343.04 54.0344 342.45 54.3762 341.716 54.3762C340.851 54.3762 340.222 53.9686 339.829 53.1534L329.644 32.68L330.431 32.4827V53.5084C330.431 54.087 330.234 54.5735 329.841 54.968C329.448 55.3624 328.963 55.5597 328.386 55.5597Z" stroke="#33C88C" stroke-width="1.31657" mask="url(#path-2-outside-1_511_1843)"/>
<path d="M366.113 55.5597C365.379 55.5597 364.815 55.2441 364.422 54.6129C364.029 53.9818 363.989 53.3112 364.304 52.6011L375.353 26.1317C375.747 25.2112 376.389 24.751 377.28 24.751C378.224 24.751 378.866 25.2112 379.207 26.1317L390.296 52.68C390.584 53.4163 390.532 54.087 390.139 54.6918C389.772 55.2704 389.208 55.5597 388.448 55.5597C388.055 55.5597 387.674 55.4545 387.307 55.2441C386.967 55.0074 386.718 54.6918 386.56 54.2973L376.808 29.9975H377.909L368 54.2973C367.817 54.7181 367.541 55.0337 367.174 55.2441C366.834 55.4545 366.48 55.5597 366.113 55.5597ZM368.197 48.7747L369.77 45.3822H385.184L386.757 48.7747H368.197Z" stroke="#33C88C" stroke-width="1.31657" mask="url(#path-2-outside-1_511_1843)"/>
<path d="M399.384 55.5597C398.808 55.5597 398.323 55.3624 397.929 54.968C397.536 54.5735 397.34 54.087 397.34 53.5084V26.8023C397.34 26.1974 397.536 25.7109 397.929 25.3427C398.323 24.9482 398.808 24.751 399.384 24.751H407.249C409.215 24.751 410.958 25.1849 412.479 26.0528C413.999 26.9206 415.179 28.1303 416.018 29.682C416.883 31.2073 417.315 32.9693 417.315 34.9679C417.315 36.8877 416.883 38.5971 416.018 40.0962C415.179 41.5952 413.999 42.7655 412.479 43.607C410.958 44.4486 409.215 44.8693 407.249 44.8693H401.429V53.5084C401.429 54.087 401.232 54.5735 400.839 54.968C400.472 55.3624 399.987 55.5597 399.384 55.5597ZM401.429 41.0823H407.249C408.455 41.0823 409.516 40.8194 410.434 40.2934C411.351 39.7674 412.072 39.0442 412.597 38.1238C413.121 37.2033 413.383 36.1514 413.383 34.9679C413.383 33.7056 413.121 32.6011 412.597 31.6543C412.072 30.6813 411.351 29.9186 410.434 29.3664C409.516 28.8141 408.455 28.538 407.249 28.538H401.429V41.0823Z" stroke="#33C88C" stroke-width="1.31657" mask="url(#path-2-outside-1_511_1843)"/>
<path d="M433.951 55.9541C432.273 55.9541 430.674 55.6912 429.153 55.1652C427.633 54.6392 426.309 53.9029 425.182 52.9561C424.054 52.0094 423.229 50.918 422.704 49.682C422.442 49.1297 422.442 48.6169 422.704 48.1435C422.993 47.6701 423.465 47.3677 424.12 47.2362C424.592 47.131 425.051 47.2099 425.496 47.4729C425.968 47.7096 426.322 48.0777 426.558 48.5774C426.872 49.2349 427.384 49.8397 428.091 50.392C428.825 50.9443 429.704 51.3914 430.726 51.7332C431.748 52.0751 432.823 52.2461 433.951 52.2461C435.209 52.2461 436.362 52.0488 437.411 51.6543C438.486 51.2599 439.351 50.6944 440.006 49.9581C440.661 49.1954 440.989 48.2618 440.989 47.1573C440.989 45.7635 440.439 44.5143 439.338 43.4098C438.263 42.3052 436.48 41.6215 433.99 41.3585C430.739 41.0429 428.183 40.083 426.322 38.4788C424.461 36.8746 423.53 34.8891 423.53 32.5222C423.53 30.7865 424.015 29.3138 424.985 28.104C425.955 26.8943 427.266 25.9739 428.917 25.3427C430.595 24.7115 432.456 24.396 434.501 24.396C436.1 24.396 437.49 24.6195 438.669 25.0666C439.875 25.5136 440.924 26.1317 441.815 26.9206C442.706 27.7096 443.48 28.6432 444.135 29.7214C444.502 30.3 444.646 30.8522 444.568 31.3782C444.515 31.8779 444.266 32.2724 443.82 32.5616C443.322 32.8772 442.785 32.943 442.208 32.7589C441.631 32.5748 441.199 32.2329 440.911 31.7332C440.491 30.9706 439.98 30.3263 439.377 29.8003C438.774 29.2743 438.066 28.8667 437.254 28.5774C436.441 28.2618 435.484 28.104 434.383 28.104C432.443 28.0777 430.818 28.4459 429.507 29.2086C428.196 29.9449 427.541 31.0889 427.541 32.6405C427.541 33.4295 427.738 34.1921 428.131 34.9285C428.55 35.6386 429.297 36.2566 430.372 36.7825C431.473 37.3085 433.046 37.6767 435.091 37.8871C438.21 38.2027 440.635 39.1626 442.365 40.7668C444.122 42.3447 445 44.4354 445 47.039C445 48.538 444.686 49.8397 444.056 50.9443C443.453 52.0488 442.628 52.9824 441.579 53.7451C440.557 54.4814 439.377 55.0337 438.04 55.4019C436.729 55.7701 435.366 55.9541 433.951 55.9541Z" stroke="#33C88C" stroke-width="1.31657" mask="url(#path-2-outside-1_511_1843)"/>
</svg>
