<svg xmlns="http://www.w3.org/2000/svg" viewBox="0 0 48 48">
  <rect width="48" height="48" rx="10" fill="#185C37"/>
  <path fill="#21A366" d="M2 12h20v24H2z"/>
  <path fill="#107C41" d="M22 12h24v24H22z"/>
  <path fill="#33C481" d="M22 0h22a4 4 0 0 1 4 4v8H22z"/>
  <path fill="#185C37" d="M22 36h26v8a4 4 0 0 1-4 4H22z"/>
  <path fill="#FFF" d="M2 0h20v12H2z"/>
  <path fill="#FFF" d="M2 36h20v12H2z"/>
  <path fill="#21A366" d="M2 0h2a4 4 0 0 0-4 4v40a4 4 0 0 0 4 4H2V0z" opacity="0"/>
  <text x="6" y="32" font-size="18" font-weight="bold" fill="#FFF" font-family="Arial">X</text>
  <path fill="#FFF" d="M27 18l4 6-4 6h3l2.5-4 2.5 4h3l-4-6 4-6h-3l-2.5 4-2.5-4z"/>
</svg>
