<svg xmlns="http://www.w3.org/2000/svg" width="252.711" height="230.86" viewBox="0 0 252.711 230.86"><title>Group</title><g fill="none"><path fill="#ff9c1a" d="M135.856 133.437c0 11.05 3.656 25.847 15.54 37.72 19.196 19.18 45.248 19.18 61.885 10.138C233.665 170.244 279.37 137.18 231.837 0c0 64.755-95.981 71.33-95.981 133.437"/><path fill="#0da9ff" d="M179.558 56.73c-3.09-16.992-8.18-34.349-15.724-56.73 0 64.768-95.431 71.346-95.431 133.465 0 11.053 3.635 25.852 15.45 37.728 19.087 19.184 45.262 19.092 61.531 10.14-37.99-40.652-24.63-87.789 34.174-124.604"/><path fill="#00a443" d="M111.155 56.62c-3.09-16.958-8.18-34.282-15.724-56.62C95.431 64.644 0 71.21 0 133.21c0 31.82 25.63 45.77 25.63 45.77s-6.362 23.342-2.454 51.88l12.27-2.006c-5.999-20.88-2.272-43.674-1.909-45.862 15.633 6.291 31.81 4.468 43.444-1.915-37.99-40.573-24.63-87.62 34.174-124.365z"/></g></svg>