<svg xmlns="http://www.w3.org/2000/svg" width="1024" height="205" viewBox="-3.493 -3.493 615.736 123.417"><defs><linearGradient id="a" x1="70.004" x2="202.363" y1="-58.379" y2="99.363" gradientTransform="translate(0 .002)scale(2.14753)" gradientUnits="userSpaceOnUse" spreadMethod="pad"><stop offset="0" style="stop-opacity:1;stop-color:#13007c"/><stop offset=".45" style="stop-opacity:1;stop-color:#55017d"/><stop offset=".631" style="stop-opacity:1;stop-color:#90015c"/><stop offset=".883" style="stop-opacity:1;stop-color:#dd0031"/><stop offset="1" style="stop-opacity:1;stop-color:#fb0020"/></linearGradient></defs><path d="m608.75 1.035-43.266 68.956V92.97a22.7 22.7 0 0 1-6.642 16.045 22.7 22.7 0 0 1-16.045 6.646V69.918L498.97 1.034h26.675l28.618 46.246 28.623-46.246zm-373.511 0a41.703 41.703 0 0 0-41.704 41.705v72.656h24.634v-68.12a22.67 22.67 0 0 1 6.641-16.035 22.67 22.67 0 0 1 16.03-6.641h14.795a22.68 22.68 0 0 1 16.04 6.636 22.67 22.67 0 0 1 6.645 16.04v43.745c0 13.604 11.03 24.629 24.634 24.634V42.74A41.703 41.703 0 0 0 261.24 1.035zm153.995 0v23.389h35.879v90.972h24.81V24.424h35.883V1.035zM0 115.396h24.526V25.304A24.52 24.52 0 0 0 17.344 7.96 24.5 24.5 0 0 0 0 .781zm337.89-90.092v90.092h24.528V.781c-13.546 0-24.528 10.978-24.528 24.523M74.713 59.464c.024 18.246 14.813 33.031 33.06 33.051h2.89c18.243-.02 33.033-14.805 33.058-33.051v-2.5c-.02-18.248-14.81-33.038-33.057-33.058h-2.89c-18.253.02-33.043 14.81-33.061 33.058v2.495M110.663 0c31.447.035 56.94 25.518 56.973 56.964v2.495c-.034 31.455-25.522 56.938-56.972 56.972h-2.89c-31.45-.034-56.934-25.522-56.968-56.967v-2.5C50.84 25.518 76.324.035 107.774 0z" style="fill:url(#a);fill-opacity:1;fill-rule:nonzero;stroke:none"/></svg>