<svg xmlns="http://www.w3.org/2000/svg" viewBox="0 0 48 48">
  <rect width="48" height="48" rx="10" fill="#5059C9"/>
  <circle cx="34" cy="14" r="5" fill="#7B83EB"/>
  <path fill="#7B83EB" d="M39 20h-9c-.6 0-1 .4-1 1v11c0 3.3 2.7 6 6 6h.5c-.2-.7-.5-1.3-.5-2V21c0-.6-.4-1-1-1z"/>
  <path fill="#FFF" d="M26 22H10c-.6 0-1 .4-1 1v13c0 3.3 2.7 6 6 6h6c3.3 0 6-2.7 6-6V23c0-.6-.4-1-1-1z"/>
  <path fill="#5059C9" d="M18 16a5 5 0 1 0 0-10 5 5 0 0 0 0 10z"/>
  <path fill="#FFF" d="M15 28v-5h-2v-1h6v1h-2v5h-2z"/>
</svg>
