<svg xmlns="http://www.w3.org/2000/svg" xml:space="preserve" viewBox="0 0 1920 500"><path d="M21 435.7c-6.7 9-21 4.2-21-7V11.1C0 5 5 0 11.1 0h275.5c10.3 0 15 13 7.1 19.7L61.8 199c-5.9 4-3.1 13.3 4.1 13.3h90.7c14.3 0 20.5 15.1 12.8 25.3zm257.2-193.5-248.5 237c-8.4 7-3.4 20.8 7.5 20.8h249.5c7.3 0 13.3-6 13.3-13.4V252.5c0-11.4-13.1-17.5-21.8-10.3M1574.1 228c3.3-14.2 9.6-26.6 19.5-37.1 13.3-13.9 29.6-21.6 48.8-22.4 41.7-1.7 68.6 29.8 74 59.4zm174.7-39.7c-11.2-21.1-27.4-37.2-48.8-47.9-23.3-11.6-47.9-14.9-73.4-10.7-32.7 5.4-58.8 21.9-77.9 49-20.5 29.1-26.9 61.6-19.8 96.4 8.2 40.2 31.7 68.9 69.1 85.8 24.2 10.9 49.7 13.3 75.8 8.9 31.2-5.3 56.4-20.9 76.1-45.7.6-.7 1.1-1.5 1.8-2.4-11.3-8.3-22.3-16.5-33.4-24.7-1.3 1.6-2.5 3.1-3.7 4.5-21.7 25.4-49.1 34-81.6 27.8-30.6-8-49.7-27.6-58.3-57.8-.6-2.1-.9-4.3-1.4-6.7h190.3c.1-.9.2-1.5.2-2-.1-6.6 0-13.2-.2-19.9-1-19.2-5.7-37.5-14.8-54.6m39.3-55.4v234h46.1V175.4h85.8V133h-131.9zm-1031.8.1h-49v118.9c0 66.3 52.4 120.1 117.1 120.1 30.5 0 58.3-12 79.2-31.6V367h49V133h-49v119.8c0 41.7-33 75.5-73.6 75.5-40.7 0-73.6-33.8-73.6-75.5v-.9zM442 366.9h235.9v-42.3H509.5l168.4-149.3V133H442v42.4h166.2L442 324.6zm738.9 0h49V248c0-66.3-52.4-120.1-117.1-120.1-30.5 0-58.3 12-79.2 31.6V133h-49v233.9h49V247.1c0-41.7 33-75.5 73.6-75.5 40.7 0 73.6 33.8 73.6 75.5v.9zm276.6-323v117.3c-21.8-20.6-51.3-33.3-83.7-33.3-67.4 0-122 54.6-122 122s54.6 122 122 122c32.4 0 61.9-12.7 83.7-33.3v28.3h47.3v-323zM1378.6 331c-44.7 0-80.9-36.2-80.9-80.9s36.2-80.9 80.9-80.9 80.9 36.2 80.9 80.9-36.2 80.9-80.9 80.9" style="fill:#191b41"/></svg>